<svg width="28" height="27" viewBox="0 0 28 27" fill="none" xmlns="http://www.w3.org/2000/svg">
<rect x="1" y="10" width="26" height="16" rx="3" stroke="black" stroke-opacity="0.55" stroke-width="2"/>
<circle cx="14" cy="17.5" r="2" fill="black" fill-opacity="0.55"/>
<line x1="14" y1="19.5" x2="14" y2="23.5" stroke="black" stroke-opacity="0.55"/>
<mask id="path-4-inside-1_10_64" fill="white">
<path d="M5.5 11C5.5 9.55546 5.71986 8.12506 6.14702 6.79048C6.57419 5.4559 7.20029 4.24327 7.98959 3.22182C8.77889 2.20038 9.71592 1.39013 10.7472 0.837324C11.7785 0.284523 12.8838 0 14 0C15.1162 0 16.2215 0.284523 17.2528 0.837326C18.2841 1.39013 19.2211 2.20038 20.0104 3.22183C20.7997 4.24327 21.4258 5.4559 21.853 6.79048C22.2801 8.12506 22.5 9.55546 22.5 11L14 11H5.5Z"/>
</mask>
<path d="M5.5 11C5.5 9.55546 5.71986 8.12506 6.14702 6.79048C6.57419 5.4559 7.20029 4.24327 7.98959 3.22182C8.77889 2.20038 9.71592 1.39013 10.7472 0.837324C11.7785 0.284523 12.8838 0 14 0C15.1162 0 16.2215 0.284523 17.2528 0.837326C18.2841 1.39013 19.2211 2.20038 20.0104 3.22183C20.7997 4.24327 21.4258 5.4559 21.853 6.79048C22.2801 8.12506 22.5 9.55546 22.5 11L14 11H5.5Z" stroke="black" stroke-opacity="0.55" stroke-width="4" mask="url(#path-4-inside-1_10_64)"/>
</svg>
